<?xml version="1.0" encoding="UTF-8" standalone="no"?>
<svg
   xmlns:dc="http://purl.org/dc/elements/1.1/"
   xmlns:cc="http://creativecommons.org/ns#"
   xmlns:rdf="http://www.w3.org/1999/02/22-rdf-syntax-ns#"
   xmlns:svg="http://www.w3.org/2000/svg"
   xmlns="http://www.w3.org/2000/svg"
   xmlns:sodipodi="http://sodipodi.sourceforge.net/DTD/sodipodi-0.dtd"
   xmlns:inkscape="http://www.inkscape.org/namespaces/inkscape"
   width="46.229973mm"
   height="14.747129mm"
   viewBox="0 0 46.229973 14.747129"
   version="1.1"
   id="svg8"
   inkscape:version="1.0.1 (3bc2e813f5, 2020-09-07)"
   sodipodi:docname="combined.svg">
  <defs
     id="defs2">
    <clipPath
       clipPathUnits="userSpaceOnUse"
       id="clipPath1038">
      <circle
         style="fill:none;stroke:#000000;stroke-width:0.646269;stroke-opacity:1"
         id="circle1040"
         cx="53.53677"
         cy="54.888714"
         r="4.458518" />
    </clipPath>
  </defs>
  <sodipodi:namedview
     id="base"
     pagecolor="#ffffff"
     bordercolor="#666666"
     borderopacity="1.0"
     inkscape:pageopacity="0.0"
     inkscape:pageshadow="2"
     inkscape:zoom="3.959798"
     inkscape:cx="93.279608"
     inkscape:cy="11.412198"
     inkscape:document-units="mm"
     inkscape:current-layer="text1256"
     inkscape:document-rotation="0"
     showgrid="false"
     fit-margin-top="0"
     fit-margin-left="0"
     fit-margin-right="0"
     fit-margin-bottom="0"
     inkscape:window-width="1920"
     inkscape:window-height="1001"
     inkscape:window-x="980"
     inkscape:window-y="2151"
     inkscape:window-maximized="1" />
  <metadata
     id="metadata5">
    <rdf:RDF>
      <cc:Work
         rdf:about="">
        <dc:format>image/svg+xml</dc:format>
        <dc:type
           rdf:resource="http://purl.org/dc/dcmitype/StillImage" />
        <dc:title></dc:title>
      </cc:Work>
    </rdf:RDF>
  </metadata>
  <g
     inkscape:label="Layer 1"
     inkscape:groupmode="layer"
     id="layer1"
     transform="translate(-47.234793,-59.751732)">
    <g
       aria-label="the
snitch"
       id="text1256"
       style="font-style:normal;font-weight:normal;font-size:10.5833px;line-height:0.55;font-family:sans-serif;letter-spacing:-0.79375px;fill:#000000;fill-opacity:1;stroke:none;stroke-width:0.264583"
       transform="translate(-0.28397387)">
      <path
         d="m 76.541835,73.901086 v -5.772709 h 2.074567 v 5.772709 z"
         style="font-style:normal;font-variant:normal;font-weight:900;font-stretch:normal;font-family:Inter;-inkscape-font-specification:'Inter Heavy';stroke-width:0.264583"
         id="path1270"
         sodipodi:nodetypes="ccccc" />
      <g
         id="g1305">
        <path
           d="m 68.508174,62.168507 v 1.503309 h -0.992185 v 2.412812 q 0,0.360794 0.390861,0.360794 0.09396,0 0.21798,-0.02255 0.127781,-0.02255 0.187913,-0.03758 l 0.300662,1.45821 q -0.139056,0.04134 -0.398377,0.101474 -0.255562,0.06013 -0.60884,0.07892 -1.074866,0.06013 -1.627333,-0.387103 -0.548708,-0.450993 -0.537433,-1.356737 v -2.60824 H 64.7048 v -1.503309 h 0.736622 v -1.383045 h 2.074567 v 1.383045 z"
           style="font-style:normal;font-variant:normal;font-weight:900;font-stretch:normal;font-family:Inter;-inkscape-font-specification:'Inter Heavy';stroke-width:0.264583"
           id="path1260" />
        <path
           d="m 70.751087,64.694067 v 3.247149 H 68.67652 V 60.24427 h 1.999401 v 3.021653 h 0.06013 q 0.19543,-0.552467 0.650181,-0.860645 0.454751,-0.311937 1.093658,-0.311937 0.612599,0 1.063592,0.278112 0.454751,0.278113 0.702797,0.766688 0.251804,0.488576 0.248046,1.119966 v 3.683109 h -2.074567 v -3.247149 q 0.0038,-0.428443 -0.214222,-0.672731 -0.214222,-0.244288 -0.612599,-0.244288 -0.379585,0 -0.60884,0.244288 -0.229255,0.244288 -0.233013,0.672731 z"
           style="font-style:normal;font-variant:normal;font-weight:900;font-stretch:normal;font-family:Inter;-inkscape-font-specification:'Inter Heavy';stroke-width:0.264583"
           id="path1262" />
        <path
           d="m 77.488899,68.046447 q -1.386803,0 -2.183557,-0.785479 -0.792996,-0.789238 -0.792996,-2.191074 0,-0.894469 0.360795,-1.563442 0.360794,-0.668973 1.018492,-1.041042 0.657698,-0.372069 1.552167,-0.372069 0.87192,0 1.514585,0.357036 0.646423,0.357036 0.999701,1.022251 0.357036,0.661456 0.357036,1.582233 v 0.481059 h -3.758274 v 0.0902 q 0,0.417168 0.255562,0.691522 0.259321,0.270596 0.721589,0.270596 0.319453,0 0.556224,-0.13154 0.24053,-0.135298 0.330728,-0.379585 h 1.894171 q -0.146573,0.901985 -0.886953,1.43566 -0.736622,0.533675 -1.93927,0.533674 z m -0.932051,-3.653042 h 1.84907 q -0.0075,-0.372069 -0.270595,-0.605082 -0.259321,-0.236772 -0.646424,-0.236772 -0.379585,0 -0.653939,0.233013 -0.270596,0.233013 -0.278112,0.608841 z"
           style="font-style:normal;font-variant:normal;font-weight:900;font-stretch:normal;font-family:Inter;-inkscape-font-specification:'Inter Heavy';stroke-width:0.264583"
           id="path1264" />
        <path
           d="m 70.342211,70.007514 h -1.909203 q -0.02255,-0.266837 -0.248046,-0.417168 -0.225496,-0.154089 -0.533675,-0.154089 -0.266837,0 -0.458509,0.09772 -0.191672,0.09771 -0.187914,0.278112 -0.0038,0.127781 0.10899,0.236771 0.116507,0.10899 0.447235,0.169123 l 1.172581,0.210463 q 1.747598,0.315695 1.758872,1.563442 -0.0038,0.616357 -0.36831,1.071108 -0.360795,0.450993 -0.988427,0.699039 -0.623873,0.244288 -1.424385,0.244288 -1.322913,0 -2.070809,-0.541192 -0.744139,-0.541191 -0.830579,-1.428144 h 2.059534 q 0.04134,0.274354 0.270596,0.424685 0.233013,0.146573 0.586291,0.146573 0.285629,0 0.469784,-0.09771 0.187914,-0.09772 0.191672,-0.278112 -0.01127,-0.300662 -0.661456,-0.420927 l -1.022251,-0.180397 q -1.770147,-0.311937 -1.758872,-1.69874 -0.0038,-0.901986 0.710314,-1.390562 0.714072,-0.488575 1.950544,-0.488575 1.251505,0 1.973094,0.518642 0.725347,0.518641 0.762929,1.43566 z"
           style="font-style:normal;font-variant:normal;font-weight:900;font-stretch:normal;font-family:Inter;-inkscape-font-specification:'Inter Heavy';stroke-width:0.264583"
           id="path1266" />
        <path
           d="m 72.570112,70.653937 v 3.247149 h -2.074567 v -5.772709 h 1.969336 v 1.097416 h 0.06013 q 0.187914,-0.548708 0.661456,-0.860644 0.477301,-0.311937 1.112449,-0.311937 0.612599,0 1.063592,0.28187 0.454751,0.278113 0.702797,0.766688 0.251804,0.488576 0.248046,1.116208 v 3.683108 h -2.074567 v -3.247149 q 0.0038,-0.428443 -0.21798,-0.672731 -0.21798,-0.244287 -0.60884,-0.244287 -0.387103,0 -0.612599,0.244287 -0.225497,0.244288 -0.229255,0.672731 z"
           style="font-style:normal;font-variant:normal;font-weight:900;font-stretch:normal;font-family:Inter;-inkscape-font-specification:'Inter Heavy';stroke-width:0.264583"
           id="path1268" />
        <path
           d="m 82.317543,68.128377 v 1.50331 h -0.992185 v 2.412812 q 0,0.360794 0.390861,0.360794 0.09396,0 0.21798,-0.02255 0.127781,-0.02255 0.187914,-0.03758 l 0.300661,1.45821 q -0.139056,0.04134 -0.398377,0.101473 -0.255562,0.06013 -0.60884,0.07892 -1.074866,0.06013 -1.627333,-0.387102 -0.548708,-0.450993 -0.537433,-1.356737 v -2.608242 h -0.736622 v -1.50331 h 0.736622 V 66.74533 h 2.074567 v 1.383045 z"
           style="font-style:normal;font-variant:normal;font-weight:900;font-stretch:normal;font-family:Inter;-inkscape-font-specification:'Inter Heavy';stroke-width:0.264583"
           id="path1272" />
        <path
           d="m 85.08663,74.006318 q -0.939569,0 -1.608542,-0.372069 -0.668973,-0.375828 -1.026009,-1.0448 -0.357036,-0.672732 -0.357036,-1.559684 0,-0.886953 0.357036,-1.555926 0.357036,-0.672731 1.026009,-1.0448 0.668973,-0.375827 1.608542,-0.375827 0.849369,0 1.469485,0.308178 0.623873,0.30442 0.965876,0.864403 0.342003,0.556225 0.345761,1.30788 h -1.924236 q -0.04134,-0.454751 -0.263079,-0.691523 -0.21798,-0.240529 -0.563741,-0.240529 -0.409652,0 -0.657698,0.353277 -0.244288,0.34952 -0.244288,1.059834 0,0.710314 0.244288,1.063591 0.248046,0.34952 0.657698,0.34952 0.342003,0 0.567499,-0.236771 0.225497,-0.24053 0.259321,-0.695281 h 1.924236 q -0.01503,1.146273 -0.759171,1.830279 -0.74038,0.680248 -2.021951,0.680248 z"
           style="font-style:normal;font-variant:normal;font-weight:900;font-stretch:normal;font-family:Inter;-inkscape-font-specification:'Inter Heavy';stroke-width:0.264583"
           id="path1274" />
        <path
           d="m 90.005444,70.653937 v 3.247149 h -2.074567 v -7.696945 h 1.999402 v 3.021652 h 0.06013 q 0.19543,-0.552466 0.650181,-0.860644 0.454751,-0.311937 1.093658,-0.311937 0.612599,0 1.063592,0.278112 0.454751,0.278112 0.702797,0.766688 0.251804,0.488576 0.248046,1.119966 v 3.683108 h -2.074567 v -3.247149 q 0.0038,-0.428443 -0.214222,-0.672731 -0.214222,-0.244287 -0.612599,-0.244287 -0.379585,0 -0.60884,0.244287 -0.229255,0.244288 -0.233013,0.672731 z"
           style="font-style:normal;font-variant:normal;font-weight:900;font-stretch:normal;font-family:Inter;-inkscape-font-specification:'Inter Heavy';stroke-width:0.264583"
           id="path1276" />
      </g>
      <g
         id="g1058"
         transform="matrix(0.79762058,0,0,0.79762058,14.146831,22.879855)">
        <path
           style="fill:#000000;fill-opacity:1;stroke:#000000;stroke-width:0.0394645;stroke-opacity:1"
           d="m 49.279558,60.002998 c 0,-0.02581 0.710359,-0.03946 2.052147,-0.03946 1.128682,0 2.052147,-0.01396 2.052147,-0.03107 0,-0.03507 -0.488639,-0.324121 -0.547934,-0.324121 -0.0211,0 -0.06186,-0.02322 -0.09054,-0.05163 -0.02869,-0.0284 -0.229739,-0.139386 -0.446793,-0.246653 -0.217055,-0.107272 -0.403524,-0.204713 -0.414376,-0.216535 -0.02275,-0.0248 -0.313741,-0.195558 -0.333223,-0.195558 -0.0072,0 -0.02068,0.05234 -0.03007,0.116314 -0.0093,0.06397 -0.0046,0.10856 0.01072,0.09911 0.0153,-0.0095 0.04001,0.08027 0.0549,0.199406 0.0149,0.119125 0.04382,0.216607 0.06431,0.216607 0.02049,0 0.03318,0.05329 0.02823,0.118392 -0.0094,0.122844 -0.07315,0.154555 -0.138912,0.06906 -0.02087,-0.02713 -0.06141,-0.182523 -0.09011,-0.345313 -0.02869,-0.16279 -0.06501,-0.313741 -0.08072,-0.335447 -0.01571,-0.0217 -0.04063,-0.09603 -0.0554,-0.165152 -0.02085,-0.09756 -0.05277,-0.131385 -0.142678,-0.15113 -0.06371,-0.01395 -0.115827,-0.04178 -0.115827,-0.06176 0,-0.01999 -0.02719,-0.03632 -0.06042,-0.03632 -0.03325,0 -0.07066,-0.02664 -0.08314,-0.05918 -0.01249,-0.03256 -0.0401,-0.05921 -0.06134,-0.05921 -0.04523,0 -0.55538,-0.24513 -0.584367,-0.280797 -0.01072,-0.01344 -0.06151,-0.03735 -0.112593,-0.05326 -0.05107,-0.01595 -0.153943,-0.07046 -0.228596,-0.121121 l -0.135731,-0.09211 -0.236458,0.121025 c -0.130042,0.06657 -0.245196,0.112281 -0.255874,0.101609 -0.01059,-0.01059 -0.01452,-0.301614 -0.0086,-0.646525 l 0.01101,-0.627111 0.123238,0.256518 c 0.06779,0.141084 0.144446,0.322527 0.170353,0.403203 0.04094,0.127461 0.05639,0.140882 0.118026,0.102395 0.05574,-0.0348 0.108519,-0.02607 0.246615,0.04077 0.09664,0.04679 0.196737,0.08506 0.222442,0.08506 0.02571,0 0.04674,0.01742 0.04674,0.03871 0,0.02129 0.0444,0.04986 0.09867,0.06348 0.05427,0.01367 0.09865,0.03918 0.09865,0.05681 0,0.01763 0.05316,0.04373 0.118161,0.05799 0.06499,0.01424 0.131589,0.0478 0.14799,0.07452 0.0164,0.02671 0.09199,0.07315 0.167959,0.103196 0.07597,0.03005 0.147886,0.0687 0.159818,0.08588 0.01194,0.01718 0.07622,0.04215 0.142839,0.05549 l 0.121133,0.02423 0.01943,-0.329484 c 0.01154,-0.195666 0.04559,-0.377567 0.08381,-0.447876 0.03543,-0.06512 0.07567,-0.202748 0.08948,-0.305849 0.01381,-0.103101 0.04056,-0.187457 0.05947,-0.187457 0.0189,0 0.03438,-0.06215 0.03438,-0.138118 0,-0.07597 -0.01776,-0.13812 -0.03946,-0.13812 -0.02171,0 -0.03946,-0.02289 -0.03946,-0.05083 0,-0.02797 -0.03552,-0.120523 -0.07893,-0.205666 -0.08479,-0.166293 -0.100169,-0.256518 -0.04373,-0.256518 0.01935,0 0.04721,-0.04794 0.06191,-0.106524 0.04557,-0.181515 0.364758,-0.41799 0.631844,-0.468096 0.0766,-0.0144 0.139271,-0.0419 0.139271,-0.06119 0,-0.0193 0.02664,-0.03507 0.05918,-0.03507 0.07104,0 0.0777,-0.08412 0.01181,-0.149964 -0.06487,-0.06488 -0.169736,-0.05944 -0.228896,0.01181 -0.07884,0.095 -0.422029,0.07748 -0.579715,-0.02959 -0.07193,-0.04883 -0.140809,-0.119871 -0.153093,-0.157858 -0.01222,-0.03798 -0.03889,-0.06906 -0.05914,-0.06906 -0.0479,0 -0.04754,-0.282342 5.06e-4,-0.408749 0.02774,-0.07297 0.02269,-0.110326 -0.01974,-0.145526 -0.129052,-0.107109 0.0024,-0.235012 0.241744,-0.235012 0.161305,0 0.17477,-0.0078 0.17477,-0.101256 0,-0.132351 -0.06681,-0.253925 -0.139516,-0.253925 -0.07546,0 -0.07406,-0.09652 0.0026,-0.173094 0.06152,-0.06151 0.193873,-0.04488 0.154159,0.01936 -0.01194,0.01943 0.0043,0.03531 0.0364,0.03531 0.03203,0 0.065,-0.02029 0.07327,-0.04511 0.0082,-0.02482 0.07634,0.0773 0.151281,0.22692 0.07492,0.149613 0.149564,0.277943 0.165844,0.285177 0.01628,0.0072 0.0296,0.03522 0.0296,0.06218 0,0.08139 0.179293,0.225084 0.247969,0.19873 0.03459,-0.01317 0.07411,-0.07508 0.08778,-0.137314 0.01367,-0.06224 0.0972,-0.185506 0.185609,-0.27392 0.08841,-0.08841 0.153793,-0.166078 0.145281,-0.172581 -0.05717,-0.04369 -0.327336,-0.149129 -0.436569,-0.170393 -0.07228,-0.0141 -0.14029,-0.03698 -0.15114,-0.0509 -0.02827,-0.03625 -0.365524,-0.136047 -0.424244,-0.12552 -0.02713,0.0049 -0.04933,-0.0096 -0.04933,-0.03236 0,-0.02266 -0.03107,-0.0413 -0.06906,-0.04145 -0.03798,-1.32e-4 -0.113463,-0.02332 -0.167724,-0.05151 -0.05427,-0.0282 -0.187456,-0.07541 -0.295983,-0.104962 -0.108518,-0.02952 -0.232351,-0.07739 -0.275165,-0.106347 -0.04282,-0.02896 -0.102275,-0.05266 -0.13216,-0.05266 -0.02988,0 -0.110287,-0.02553 -0.178675,-0.05674 -0.293941,-0.134086 -0.619758,-0.25898 -0.675669,-0.25898 -0.03324,0 -0.06038,-0.01585 -0.06038,-0.03519 0,-0.01935 -0.0444,-0.04633 -0.09865,-0.05995 -0.05427,-0.01367 -0.09866,-0.04323 -0.09866,-0.06581 0,-0.02258 -0.01772,-0.03009 -0.03939,-0.01669 -0.02167,0.01344 -0.0789,-0.0033 -0.127176,-0.03714 -0.04827,-0.03381 -0.119343,-0.06148 -0.157928,-0.06148 -0.06348,0 -0.07015,-0.04689 -0.07015,-0.493306 0,-0.271318 0.0075,-0.493305 0.01648,-0.493305 0.0091,0 0.10488,0.0444 0.212918,0.09868 0.108031,0.05427 0.216048,0.09865 0.240028,0.09865 0.02398,0 0.04359,0.01776 0.04359,0.03946 0,0.02171 0.03178,0.03946 0.07058,0.03946 0.03883,0 0.138235,0.03449 0.220909,0.07664 0.08268,0.04215 0.201869,0.08796 0.264863,0.101784 0.06299,0.01381 0.114536,0.03952 0.114536,0.05708 0,0.01756 0.05803,0.04282 0.128982,0.05613 0.07095,0.01344 0.190811,0.05732 0.266386,0.09779 0.07558,0.04048 0.195121,0.08625 0.265665,0.101717 0.07055,0.01547 0.128263,0.04164 0.128263,0.05819 0,0.01653 0.09737,0.05184 0.216381,0.07847 0.119016,0.02662 0.225658,0.06344 0.236993,0.08176 0.01141,0.01835 0.09156,0.04534 0.178263,0.05998 0.08671,0.01465 0.15765,0.03948 0.15765,0.05516 0,0.01569 0.09323,0.05194 0.20719,0.08053 0.113951,0.02861 0.224946,0.06516 0.246651,0.08121 0.02171,0.01606 0.132758,0.05107 0.246774,0.07781 0.114019,0.02673 0.216228,0.06302 0.227128,0.08067 0.01101,0.01763 0.09451,0.04469 0.185816,0.06011 0.0913,0.01542 0.197821,0.04792 0.236716,0.0722 0.09978,0.06231 0.196946,-0.0086 0.24017,-0.175503 0.0192,-0.07416 0.04848,-0.143717 0.065,-0.154608 0.01654,-0.01101 0.05178,-0.0864 0.07832,-0.167784 0.02654,-0.08139 0.06323,-0.147994 0.0815,-0.147994 0.0183,0 0.04494,-0.05308 0.05917,-0.11793 0.01425,-0.06487 0.0423,-0.128073 0.06234,-0.140449 0.07327,-0.0453 0.03305,-0.08864 -0.10655,-0.11482 -0.07864,-0.01475 -0.171876,-0.04284 -0.207189,-0.06237 -0.03531,-0.01956 -0.161879,-0.06144 -0.281257,-0.09307 -0.379498,-0.100549 -0.571656,-0.159932 -0.591969,-0.182924 -0.0257,-0.02907 -0.36599,-0.133667 -0.404508,-0.12434 -0.01628,0.0039 -0.0296,-0.0086 -0.0296,-0.02787 0,-0.01929 -0.0614,-0.04659 -0.136449,-0.06066 -0.07506,-0.0141 -0.186046,-0.05146 -0.246652,-0.08308 -0.0606,-0.03163 -0.136839,-0.05819 -0.169393,-0.05907 -0.03256,-8.52e-4 -0.130232,-0.0359 -0.217053,-0.07783 -0.08683,-0.04195 -0.181445,-0.07686 -0.210272,-0.07759 -0.02883,-7.86e-4 -0.181643,-0.06349 -0.339587,-0.139472 -0.157948,-0.07598 -0.312438,-0.138119 -0.343316,-0.138119 -0.03088,0 -0.09118,-0.02405 -0.133993,-0.05343 -0.04281,-0.0294 -0.131128,-0.07275 -0.196237,-0.09635 -0.207523,-0.07523 1.246562,-0.05592 1.554795,0.02066 0.23354,0.05802 0.25606,0.0578 0.300333,-0.0027 0.03677,-0.0503 0.11258,-0.06546 0.327289,-0.06546 h 0.279425 l -0.05661,0.10852 c -0.08708,0.166911 -0.06841,0.220758 0.104038,0.300309 0.0875,0.04037 0.164085,0.06699 0.170186,0.05919 0.03726,-0.04767 0.181725,-0.382566 0.181725,-0.421294 0,-0.03455 0.22184,-0.04675 0.85162,-0.04675 h 0.851619 l -0.02755,0.128262 c -0.01514,0.07054 -0.04701,0.163777 -0.07079,0.207188 -0.02379,0.0434 -0.04395,0.0878 -0.0448,0.09866 -8.51e-4,0.01072 -0.05031,0.102817 -0.109918,0.204349 -0.05961,0.101528 -0.108384,0.203719 -0.108384,0.227064 0,0.02335 -0.03551,0.108709 -0.07894,0.189711 -0.0434,0.081 -0.07894,0.169725 -0.07894,0.197177 0,0.02745 -0.01719,0.04991 -0.03823,0.04991 -0.02101,0 -0.0289,0.02435 -0.01746,0.05412 0.01141,0.02975 -0.0079,0.0829 -0.04322,0.118092 -0.03519,0.03519 -0.05368,0.08068 -0.04107,0.101051 0.01263,0.02038 -0.01276,0.06207 -0.05643,0.09265 -0.04363,0.03055 -0.06928,0.06564 -0.05697,0.07796 0.02224,0.02224 -0.170853,0.465605 -0.219207,0.503311 -0.04921,0.03837 -0.01989,0.279581 0.03846,0.316513 0.03257,0.02061 0.106986,0.03772 0.165393,0.03807 0.05841,3.29e-4 0.116437,0.01716 0.128956,0.03741 0.01249,0.02025 0.124556,0.05668 0.248982,0.08098 0.124419,0.02431 0.262734,0.06215 0.307348,0.08413 0.04462,0.02199 0.09789,0.0359 0.118391,0.03093 0.04952,-0.01194 0.252861,0.03928 0.359092,0.09057 0.04678,0.02258 0.103265,0.02978 0.125535,0.01601 0.02226,-0.01381 0.05165,-0.007 0.06529,0.01507 0.01367,0.02206 0.07256,0.04067 0.130979,0.04136 0.113163,0.0013 0.244323,0.07986 0.244323,0.146255 0,0.02206 -0.02724,0.06275 -0.06052,0.09037 -0.03328,0.02762 -0.05393,0.06976 -0.04591,0.09364 0.0079,0.02387 -0.0269,0.117862 -0.07762,0.208861 -0.05072,0.091 -0.09221,0.191511 -0.09221,0.223359 0,0.0508 -0.02788,0.05067 -0.226921,-9.17e-4 -0.124815,-0.03235 -0.263335,-0.06305 -0.307842,-0.06816 -0.0445,-0.0052 -0.106673,-0.02534 -0.138119,-0.04491 -0.03146,-0.01956 -0.09716,-0.03041 -0.145999,-0.0241 -0.04883,0.0064 -0.0888,-0.0095 -0.0888,-0.03504 0,-0.02724 -0.02731,-0.03603 -0.06591,-0.02123 -0.03625,0.01396 -0.0768,0.0076 -0.09011,-0.01381 -0.01344,-0.02152 -0.103523,-0.04517 -0.200477,-0.0525 l -0.176279,-0.01344 0.01974,0.370853 c 0.01072,0.203969 0.0066,0.391259 -0.0092,0.416201 -0.01594,0.02493 -0.02926,0.146094 -0.0296,0.269233 -5.46e-4,0.197868 0.01357,0.238017 0.121025,0.345513 0.153408,0.153407 0.216776,0.361579 0.147852,0.4857 -0.0273,0.04917 -0.05026,0.105015 -0.05103,0.124148 -7.86e-4,0.01913 -0.06284,0.06773 -0.137961,0.108017 -0.239148,0.128264 -0.402776,0.357096 -0.367313,0.513702 0.0079,0.03553 0.07081,0.07578 0.139716,0.08955 0.143196,0.02865 0.344431,0.228255 0.344431,0.341654 0,0.04207 0.01776,0.0765 0.03946,0.0765 0.05497,0 0.04945,0.13208 -0.0079,0.18943 -0.02605,0.02605 -0.03161,0.04736 -0.01236,0.04736 0.01926,0 -0.01304,0.05018 -0.07183,0.11152 -0.135188,0.141097 -0.121391,0.236716 0.06283,0.43582 0.137415,0.148512 0.150692,0.153868 0.293773,0.118434 0.315726,-0.07817 0.415849,-0.0914 0.840485,-0.111086 0.14866,-0.007 0.702645,0.05789 0.842237,0.09847 0.147973,0.04301 0.302229,0.114969 0.302229,0.140952 0,0.01381 0.05167,0.04644 0.114806,0.07261 0.1482,0.06137 0.31955,0.252921 0.281438,0.31459 -0.07236,0.117074 -0.218396,0.148891 -0.497405,0.108384 -0.150568,-0.02187 -0.45135,-0.04129 -0.668404,-0.04316 -0.360722,-0.0032 -0.406518,0.005 -0.53277,0.09524 -0.07596,0.05427 -0.147003,0.108845 -0.157856,0.121269 -0.01072,0.01235 -0.05121,0.03423 -0.08969,0.04843 -0.03848,0.01425 -0.08151,0.05595 -0.09564,0.09277 -0.03263,0.08501 -0.157634,0.211097 -0.209307,0.211097 -0.02171,0 -0.03946,0.01776 -0.03946,0.03946 0,0.02172 -0.02114,0.03502 -0.047,0.0296 -0.02584,-0.0054 -0.05336,0.01891 -0.06111,0.0541 -0.01574,0.07127 0.09137,0.112837 0.24681,0.09578 0.05393,-0.0059 0.09806,0.0055 0.09806,0.0256 0,0.02 0.01482,0.02721 0.03297,0.016 0.01812,-0.01127 0.186838,-0.02339 0.374913,-0.02709 0.188073,-0.0039 0.341953,-0.02114 0.341953,-0.03874 0,-0.0176 0.08435,-0.04421 0.187457,-0.05914 0.103102,-0.01492 0.209427,-0.04463 0.236284,-0.06601 0.02686,-0.0214 0.07513,-0.0288 0.107256,-0.01647 0.03215,0.01235 0.06951,0.0045 0.08305,-0.01739 0.01357,-0.02191 0.04519,-0.03244 0.07032,-0.02341 0.02514,0.0091 0.09899,-0.01059 0.164108,-0.04371 0.06512,-0.03307 0.16279,-0.06837 0.217054,-0.07847 0.230647,-0.04289 1.078807,-0.0542 2.081745,-0.0278 l 1.075406,0.02833 v 0.232295 0.232296 h -5.327759 c -3.525484,0 -5.327691,-0.01344 -5.327691,-0.03946 z m 4.281885,-1.065539 c -0.01424,-0.02297 0.02512,-0.03946 0.094,-0.03946 0.06512,0 0.128127,-0.01574 0.140019,-0.03499 0.01194,-0.01926 0.08219,-0.04635 0.15622,-0.06023 0.07401,-0.01396 0.15624,-0.05132 0.182693,-0.0832 0.05539,-0.06674 0.01742,-0.135991 -0.214106,-0.390426 -0.07731,-0.08498 -0.150925,-0.187085 -0.16357,-0.226923 -0.02446,-0.07704 -0.154455,-0.09899 -0.195259,-0.03295 -0.0308,0.04984 -0.17759,0.05202 -0.17759,0.0026 0,-0.03016 0.07664,-0.07008 0.197322,-0.102789 0.01072,-0.0029 0.04636,-0.01563 0.07894,-0.02817 0.03255,-0.01249 0.128793,-0.03258 0.213861,-0.04452 0.08506,-0.01195 0.169903,-0.04452 0.188527,-0.07243 0.04373,-0.06552 0.0054,-0.274472 -0.05767,-0.314549 -0.07775,-0.04939 -0.247305,-0.03711 -0.369807,0.02679 -0.06217,0.03242 -0.160827,0.05907 -0.219236,0.05921 -0.05841,1.18e-4 -0.116152,0.01634 -0.12829,0.036 -0.01209,0.01967 -0.06038,0.02575 -0.107162,0.01357 -0.05306,-0.01381 -0.07558,-0.007 -0.05988,0.01851 0.015,0.0243 -0.04081,0.05129 -0.138062,0.06686 -0.08978,0.0144 -0.182696,0.03849 -0.206472,0.05365 -0.02376,0.01515 -0.05211,0.02935 -0.06296,0.03157 -0.01072,0.0022 -0.05526,0.0177 -0.09868,0.03441 -0.376081,0.144817 -0.493302,0.199211 -0.493302,0.228903 0,0.019 -0.01653,0.02432 -0.03675,0.01181 -0.02021,-0.01249 -0.04807,-0.0043 -0.06191,0.01805 -0.01381,0.02243 -0.04049,0.0313 -0.05919,0.01975 -0.01869,-0.01154 -0.04517,-0.0029 -0.0588,0.01909 -0.01367,0.02206 -0.05166,0.04011 -0.08447,0.04011 -0.04981,0 -0.0509,-0.0082 -0.0065,-0.04932 0.116463,-0.107962 0.305052,-0.224776 0.402306,-0.249186 0.05644,-0.0141 0.102626,-0.04159 0.102626,-0.06094 0,-0.01935 0.01997,-0.03519 0.04441,-0.03519 0.0457,0 0.451313,-0.165752 0.626498,-0.256019 0.05427,-0.02795 0.191895,-0.06337 0.305848,-0.0787 0.113951,-0.01531 0.207189,-0.045 0.207189,-0.06595 0,-0.02095 0.01344,-0.02987 0.0296,-0.01979 0.01628,0.01005 0.0301,-0.06437 0.03071,-0.165395 6.23e-4,-0.101023 0.01451,-0.233491 0.0309,-0.294363 0.03092,-0.114983 0.38413,-0.501021 0.458395,-0.501021 0.05615,0 0.05477,-0.263935 -0.0016,-0.298746 -0.118487,-0.07324 -0.29533,-0.687864 -0.197913,-0.687864 0.04543,0 0.08308,-0.545588 0.05585,-0.809326 -0.0214,-0.207239 -0.02715,-0.216139 -0.155332,-0.240186 -0.07321,-0.01367 -0.143025,-0.041 -0.155141,-0.0606 -0.01209,-0.0196 -0.03654,-0.02666 -0.0543,-0.01569 -0.01776,0.01101 -0.0059,0.09562 0.02627,0.1881 0.07564,0.217256 0.05072,0.788111 -0.04178,0.957443 -0.03557,0.06512 -0.06538,0.136148 -0.06624,0.157857 -0.0029,0.07684 -0.154562,0.223087 -0.201247,0.194235 -0.02807,-0.01734 -0.03623,-0.01194 -0.02046,0.01357 0.05332,0.08627 -0.172288,0.20658 -0.387363,0.20658 -0.169868,0 -0.221194,-0.01755 -0.300527,-0.102736 -0.08662,-0.09301 -0.115865,-0.100698 -0.309032,-0.08114 -0.117345,0.01194 -0.225885,0.04186 -0.241198,0.06664 -0.01529,0.02479 -0.04363,0.04593 -0.06289,0.04702 -0.06461,0.0035 -0.212643,0.08255 -0.212643,0.113355 0,0.01676 -0.03263,0.04083 -0.0725,0.05346 -0.03987,0.01263 -0.09102,0.08333 -0.113653,0.157072 -0.03521,0.114698 -0.02758,0.157942 0.05276,0.299394 0.07386,0.130014 0.09391,0.223482 0.09391,0.437552 0,0.149722 -0.01534,0.272222 -0.03406,0.272222 -0.01875,0 -0.05678,0.111005 -0.08453,0.246652 -0.02775,0.135664 -0.06569,0.263524 -0.08432,0.284144 -0.01863,0.02061 -0.03386,0.182423 -0.03386,0.359561 v 0.322083 l 0.187455,0.09428 c 0.103102,0.05186 0.193376,0.107611 0.200611,0.123878 0.0072,0.01628 0.03593,0.02959 0.06374,0.02959 0.02782,0 0.101323,0.03995 0.16332,0.0888 0.104284,0.08212 0.164675,0.09045 0.804479,0.110693 0.380453,0.01209 0.697225,0.02537 0.703933,0.0296 0.0068,0.0042 0.0012,-0.01005 -0.01222,-0.03178 z m -1.766852,-3.023135 c -0.01303,-0.01303 -0.04715,-0.01451 -0.07565,-0.003 -0.03147,0.01263 -0.02213,0.02196 0.02384,0.02384 0.04161,0.0017 0.06493,-0.0076 0.05179,-0.02074 z m 1.315236,-0.22174 c 0.0639,-0.06996 0.116164,-0.149869 0.116164,-0.177589 0,-0.02772 0.01424,-0.0504 0.03155,-0.0504 0.111412,0 0.181781,-0.769774 0.08662,-0.947592 -0.05524,-0.103211 -0.194987,-0.232926 -0.253217,-0.235027 -0.0754,-0.0027 -0.333951,0.139182 -0.357118,0.196008 -0.01317,0.03256 -0.05888,0.121353 -0.101365,0.197323 -0.04247,0.07598 -0.07726,0.185914 -0.07729,0.244322 -3.2e-5,0.05841 -0.01783,0.117171 -0.03952,0.130599 -0.0217,0.01344 -0.03946,0.09333 -0.03946,0.177589 0,0.08425 0.01776,0.164176 0.03946,0.177591 0.02171,0.01344 0.03946,0.06858 0.03946,0.122614 0,0.131386 0.177939,0.291768 0.323703,0.291768 0.07903,0 0.151077,-0.03965 0.231023,-0.12719 z M 51.979638,55.44064 c 0.08194,-0.03144 0.07933,-0.128737 -0.006,-0.223006 -0.0483,-0.05336 -0.06839,-0.142666 -0.06839,-0.303781 0,-0.215069 -0.0065,-0.230656 -0.11338,-0.270993 -0.09113,-0.0344 -0.133857,-0.02978 -0.217712,0.0235 -0.150169,0.09544 -0.162249,0.122777 -0.162919,0.368658 -8.51e-4,0.304954 0.09619,0.429563 0.33448,0.429563 0.09433,0 0.199587,-0.01072 0.233922,-0.02396 z"
           id="path1005"
           clip-path="url(#clipPath1038)"
           transform="matrix(1.928974,0,0,1.928974,-51.950974,-50.936833)" />
        <ellipse
           style="fill:none;fill-opacity:1;stroke:#000000;stroke-width:1.27359;stroke-miterlimit:4;stroke-dasharray:none;stroke-opacity:1"
           id="path1042"
           cx="50.934891"
           cy="55.47179"
           rx="8.4587345"
           ry="8.6076565" />
      </g>
    </g>
  </g>
</svg>
