<?xml version="1.0" encoding="UTF-8" standalone="no"?>
<svg
   xmlns:dc="http://purl.org/dc/elements/1.1/"
   xmlns:cc="http://creativecommons.org/ns#"
   xmlns:rdf="http://www.w3.org/1999/02/22-rdf-syntax-ns#"
   xmlns:svg="http://www.w3.org/2000/svg"
   xmlns="http://www.w3.org/2000/svg"
   xmlns:sodipodi="http://sodipodi.sourceforge.net/DTD/sodipodi-0.dtd"
   xmlns:inkscape="http://www.inkscape.org/namespaces/inkscape"
   sodipodi:docname="tophat.svg"
   inkscape:version="1.0 (4035a4fb49, 2020-05-01)"
   id="svg8"
   version="1.1"
   viewBox="0 0 107.96069 97.394865"
   height="368.10657"
   width="408.04041">
  <defs
     id="defs2">
    <inkscape:path-effect
       only_selected="false"
       apply_with_weight="true"
       apply_no_weight="true"
       helper_size="0"
       steps="2"
       weight="33.333333"
       lpeversion="1"
       is_visible="true"
       id="path-effect843"
       effect="bspline" />
    <inkscape:path-effect
       only_selected="false"
       apply_with_weight="true"
       apply_no_weight="true"
       helper_size="0"
       steps="2"
       weight="33.333333"
       lpeversion="1"
       is_visible="true"
       id="path-effect839"
       effect="bspline" />
  </defs>
  <sodipodi:namedview
     inkscape:window-maximized="1"
     inkscape:window-y="-6"
     inkscape:window-x="-6"
     inkscape:window-height="658"
     inkscape:window-width="1280"
     fit-margin-bottom="0"
     fit-margin-right="0"
     fit-margin-left="0"
     fit-margin-top="0"
     units="px"
     showgrid="false"
     inkscape:document-rotation="0"
     inkscape:current-layer="g4"
     inkscape:document-units="mm"
     inkscape:cy="248.14896"
     inkscape:cx="141.38947"
     inkscape:zoom="0.35"
     inkscape:pageshadow="2"
     inkscape:pageopacity="0.0"
     borderopacity="1.0"
     bordercolor="#666666"
     pagecolor="#ffffff"
     id="base" />
  <metadata
     id="metadata5">
    <rdf:RDF>
      <cc:Work
         rdf:about="">
        <dc:format>image/svg+xml</dc:format>
        <dc:type
           rdf:resource="http://purl.org/dc/dcmitype/StillImage" />
        <dc:title></dc:title>
      </cc:Work>
    </rdf:RDF>
  </metadata>
  <g
     transform="translate(-15.51355,-11.0079)"
     style="opacity:0.998"
     id="layer1"
     inkscape:groupmode="layer"
     inkscape:label="Layer 1">
    <g
       transform="matrix(0.11087052,0,0,0.11087052,-1.4429956,3.2009947)"
       id="g883">
      <g
         id="g4"
         transform="matrix(1.5945051,0,0,1.5945051,13.122643,13.121845)">
        <path
           d="m 672.28304,409.16038 c -13.114,-7.193 -30.056,-11.142 -51.503,-16.139 -11.22,-2.614 -23.61,-5.509 -36.988,-9.239 3.916,-91.125 15.977,-169.155 38.897,-255.954 1.808,-6.845 -0.685,-14.108 -6.317,-18.4 -62.202,-47.393998 -141.516,-73.496998 -223.335,-73.496998 -81.819,0 -161.138,26.102 -223.338,73.495998 -5.632,4.29 -8.127,11.553 -6.317,18.4 22.925,86.799 34.983,164.828 38.901,255.954 -13.379,3.732 -25.768,6.626 -36.988,9.239 -21.449,4.997 -38.389,8.944 -51.505,16.139 -17.320998,9.501 -26.102998,24.177 -26.102998,43.626 0,38.744 33.824998,73.78 95.243998,98.652 56.404,22.841 131.02,35.421 210.103,35.421 79.083,0 153.699,-12.58 210.103,-35.421 61.419,-24.873 95.244,-59.908 95.244,-98.652 0.002,-19.449 -8.779,-34.125 -26.098,-43.625 z M 393.03604,70.955382 c 70.15,0 138.134,21.055 192.787,59.505998 -20.906,81.99 -32.534,159.265 -36.71,246.275 -21.29756,6.43239 -212.48342,63.37743 -253.722,-10.21112 -24.97281,-44.56294 80.8095,-295.569878 97.645,-295.569878 z m 0,480.880998 c -159.307,0 210.511,-126.867 219.79,-124.705 43.446,10.124 50.529,13.72 50.529,25.654 0.006,46.849 -111.014,99.051 -270.319,99.051 z"
           id="path2"
           inkscape:connector-curvature="0"
           sodipodi:nodetypes="cccccscccccscscccsccsssccs" />
      </g>
      <g
         id="g6"
         transform="translate(0,389.30603)" />
      <g
         id="g8"
         transform="translate(0,389.30603)" />
      <g
         id="g10"
         transform="translate(0,389.30603)" />
      <g
         id="g12"
         transform="translate(0,389.30603)" />
      <g
         id="g14"
         transform="translate(0,389.30603)" />
      <g
         id="g16"
         transform="translate(0,389.30603)" />
      <g
         id="g18"
         transform="translate(0,389.30603)" />
      <g
         id="g20"
         transform="translate(0,389.30603)" />
      <g
         id="g22"
         transform="translate(0,389.30603)" />
      <g
         id="g24"
         transform="translate(0,389.30603)" />
      <g
         id="g26"
         transform="translate(0,389.30603)" />
      <g
         id="g28"
         transform="translate(0,389.30603)" />
      <g
         id="g30"
         transform="translate(0,389.30603)" />
      <g
         id="g32"
         transform="translate(0,389.30603)" />
      <g
         id="g34"
         transform="translate(0,389.30603)" />
    </g>
  </g>
</svg>
